Coordinates
version=1
nRows=23
nColumns=30
inDegrees=yes

Units are S.I. units (second, meters, Newtons, ...)
Angles are in degrees.

endheader
time	floatyaw	floatroll	floatpitch	floatx	floaty	floatz	pro_sup_l	deviation_l	flexion_l	cmc_flexion_l	cmc_abduction_l	mp_flexion_l	ip_flexion_l	2mcp_flexion_l	2mcp_abduction_l	2pm_flexion_l	2md_flexion_l	3mcp_flexion_l	3mcp_abduction_l	3pm_flexion_l	3md_flexion_l	4mcp_flexion_l	4mcp_abduction_l	4pm_flexion_l	4md_flexion_l	5mcp_flexion_l	5mcp_abduction_l	5pm_flexion_l	5md_flexion_l
-0.995000	-4.245860	-0.556116	99.572370	-0.102980	-0.194713	-0.016584	87.354358	0.463735	-0.823865	14.580248	6.815492	-22.447688	-35.166996	39.128212	8.176246	47.968127	32.830521	23.265146	4.817113	49.130731	32.770560	12.056806	-4.707291	63.925211	42.680976	6.335065	-8.272697	63.069482	41.980281
-0.985000	-4.245860	-0.556116	99.572370	-0.102974	-0.194712	-0.016580	87.353813	0.463474	-0.826569	14.572334	6.803945	-22.449064	-35.163961	39.133343	8.178329	47.976405	32.834086	23.264346	4.821292	49.139373	32.779618	12.065295	-4.710715	63.940082	42.688859	6.360221	-8.264461	63.060536	41.974893
-0.975000	-4.245860	-0.556116	99.572370	-0.102971	-0.194708	-0.016580	87.357874	0.468083	-0.827695	14.564140	6.785655	-22.454124	-35.161962	39.136285	8.176269	47.975088	32.833389	23.260299	4.825681	49.137998	32.784387	12.070837	-4.714429	63.949168	42.693785	6.372875	-8.248462	63.045298	41.968431
-0.965000	-4.245860	-0.556116	99.572370	-0.102972	-0.194703	-0.016585	87.367193	0.478031	-0.828587	14.555282	6.763359	-22.465468	-35.163733	39.135446	8.170449	47.968769	32.830603	23.255655	4.829475	49.130598	32.786378	12.078550	-4.719380	63.952473	42.694764	6.374293	-8.225881	63.026887	41.961679
-0.955000	-4.245860	-0.556116	99.572370	-0.102973	-0.194698	-0.016594	87.380155	0.492252	-0.830156	14.545378	6.740243	-22.484220	-35.171208	39.130676	8.162305	47.963312	32.828601	23.253447	4.831674	49.123483	32.787985	12.090804	-4.725334	63.951044	42.691913	6.369149	-8.199632	63.011086	41.956299
-0.945000	-4.245860	-0.556116	99.572370	-0.102972	-0.194695	-0.016605	87.393277	0.508127	-0.832806	14.533968	6.719398	-22.509235	-35.184535	39.123301	8.153902	47.964219	32.830151	23.255634	4.831463	49.122975	32.791804	12.106188	-4.731014	63.946317	42.686436	6.364367	-8.174015	63.004207	41.954161
-0.935000	-4.245860	-0.556116	99.572370	-0.102968	-0.194697	-0.016618	87.402937	0.522425	-0.836592	14.520881	6.702984	-22.537345	-35.202021	39.115751	8.147151	47.975190	32.837080	23.262182	4.828515	49.132661	32.799507	12.120705	-4.734794	63.939724	42.680203	6.366340	-8.153486	63.010386	41.956437
-0.925000	-4.245860	-0.556116	99.572370	-0.102961	-0.194703	-0.016629	87.407388	0.532710	-0.841479	14.506977	6.691381	-22.564244	-35.220815	39.111066	8.143009	47.997141	32.849585	23.271445	4.823125	49.151526	32.810785	12.130491	-4.735523	63.932759	42.675145	6.377925	-8.140939	63.029866	41.962982
-0.915000	-4.245860	-0.556116	99.572370	-0.102950	-0.194714	-0.016639	87.407648	0.538322	-0.847589	14.494558	6.683215	-22.585545	-35.237883	39.112262	8.141140	48.027992	32.866027	23.281653	4.816174	49.174261	32.823177	12.134482	-4.733144	63.927433	42.672775	6.397156	-8.136454	63.059236	41.972389
-0.905000	-4.245860	-0.556116	99.572370	-0.102938	-0.194727	-0.016645	87.406559	0.540381	-0.855300	14.486640	6.676622	-22.597857	-35.250869	39.121425	8.140308	48.063361	32.883441	23.292296	4.808998	49.193809	32.833191	12.135405	-4.728859	63.926529	42.673942	6.418647	-8.137397	63.093214	41.982618
-0.895000	-4.245860	-0.556116	99.572370	-0.102927	-0.194740	-0.016648	87.406621	0.540837	-0.865009	14.485115	6.670836	-22.599885	-35.258646	39.138731	8.139238	48.097898	32.898585	23.304191	4.803185	49.204686	32.838121	12.138394	-4.724770	63.932895	42.678737	6.436727	-8.139878	63.126554	41.991700
-0.885000	-4.245860	-0.556116	99.572370	-0.102916	-0.194752	-0.016649	87.408280	0.541347	-0.876636	14.488926	6.666642	-22.593183	-35.261466	39.162037	8.137305	48.126685	32.909021	23.318243	4.800248	49.205089	32.837408	12.148109	-4.723179	63.947717	42.686395	6.448037	-8.140451	63.155061	41.998136
-0.875000	-4.245860	-0.556116	99.572370	-0.102907	-0.194763	-0.016650	87.410050	0.542803	-0.889265	14.493762	6.665152	-22.581984	-35.260730	39.187476	8.134654	48.146221	32.913702	23.334102	4.801195	49.196800	32.832721	12.166268	-4.725823	63.968749	42.695251	6.452008	-8.136837	63.175881	42.001082
-0.865000	-4.245860	-0.556116	99.572370	-0.102900	-0.194772	-0.016652	87.410368	0.545791	-0.901381	14.493854	6.665950	-22.571852	-35.258461	39.210830	8.131849	48.154931	32.912943	23.349931	4.806167	49.183492	32.826875	12.191021	-4.733332	63.989854	42.702906	6.449609	-8.127592	63.187684	42.000471
-0.855000	-4.245860	-0.556116	99.572370	-0.102895	-0.194777	-0.016656	87.409477	0.551301	-0.911700	14.484994	6.666348	-22.567593	-35.256683	39.228943	8.129407	48.153386	32.908056	23.363451	4.814299	49.168878	32.822452	12.218281	-4.745003	64.002739	42.706783	6.442004	-8.111773	63.190846	41.997049
-0.845000	-4.245860	-0.556116	99.572370	-0.102894	-0.194781	-0.016661	87.409609	0.560742	-0.920118	14.466967	6.662518	-22.571379	-35.256868	39.240649	8.127579	48.144295	32.900916	23.373446	4.823906	49.155781	32.820962	12.244103	-4.759038	64.000522	42.705086	6.430174	-8.089335	63.187328	41.992169
-0.835000	-4.245860	-0.556116	99.572370	-0.102897	-0.194784	-0.016666	87.413205	0.575008	-0.928017	14.443892	6.651718	-22.582000	-35.259603	39.247037	8.126423	48.132050	32.893586	23.380649	4.832944	49.146115	32.822794	12.266709	-4.773239	63.981474	42.697791	6.415367	-8.061896	63.180130	41.987409
-0.825000	-4.245860	-0.556116	99.572370	-0.102903	-0.194789	-0.016672	87.420606	0.593289	-0.937430	14.422168	6.633983	-22.595601	-35.264525	39.251085	8.125919	48.121667	32.887931	23.387343	4.839609	49.141119	32.827638	12.286874	-4.785821	63.950635	42.687064	6.399624	-8.032838	63.172477	41.984142
-0.815000	-4.245860	-0.556116	99.572370	-0.102910	-0.194798	-0.016679	87.429051	0.612725	-0.949383	14.407182	6.612163	-22.607544	-35.270521	39.256711	8.125901	48.117308	32.885228	23.395930	4.842901	49.141399	32.834965	12.306428	-4.795911	63.917912	42.676618	6.385796	-8.006176	63.166823	41.983114
-0.805000	-4.245860	-0.556116	99.572370	-0.102917	-0.194812	-0.016686	87.433857	0.629361	-0.962597	14.400668	6.590380	-22.614534	-35.276174	39.267326	8.125843	48.120993	32.885895	23.407414	4.842922	49.146922	32.844334	12.326161	-4.803584	63.893399	42.670120	6.376891	-7.984588	63.163972	41.984124
-0.795000	-4.245860	-0.556116	99.572370	-0.102922	-0.194826	-0.016695	87.431043	0.639943	-0.973734	14.400290	6.571926	-22.616027	-35.280387	39.284310	8.124848	48.132208	32.889500	23.420742	4.840765	49.157266	32.855524	12.345025	-4.809644	63.882525	42.669435	6.375097	-7.967866	63.162754	41.985946
-0.785000	-4.245860	-0.556116	99.572370	-0.102925	-0.194835	-0.016706	87.419721	0.643469	-0.979309	14.401574	6.557867	-22.614363	-35.282975	39.306170	8.122022	48.148717	32.895147	23.433326	4.838047	49.172047	32.868523	12.361256	-4.815332	63.883821	42.673692	6.381066	-7.952977	63.160600	41.986649
-0.775000	-4.245860	-0.556116	99.572370	-0.102926	-0.194837	-0.016719	87.402801	0.641596	-0.978029	14.400867	6.547058	-22.613595	-35.284951	39.329020	8.116973	48.168117	32.902019	23.442356	4.836348	49.191202	32.883407	12.374429	-4.821997	63.890429	42.679755	6.393874	-7.935908	63.154968	41.984281
